PathFileType	4	(X/Y/Z)	OpenSim_Sub01_CSBaseline_Magnet.trc
DataRate	CameraRate	NumFrames	NumMarkers	Units	OrigDataRate	OrigDataStartFrame	OrigNumFrames
100	100	20	8	m	100	2976	5950
Frame#	Time	torso_imu_offset_imu	pelvis_imu_offset_imu	tibia_r_imu_offset_imu	femur_r_imu_offset_imu	tibia_l_imu_offset_imu	femur_l_imu_offset_imu	toes_r_imu_offset_imu	toes_l_imu_offset_imu
				X1	Y1	Z1	X2	Y2	Z2	X3	Y3	Z3	X4	Y4	Z4	X5	Y5	Z5	X6	Y6	Z6	X7	Y7	Z7	X8		Y8	Z8	

2976	29.75000000	-0.92833341	-0.07619483	0.03611022	-0.72375315	0.08988056	-0.58916782	-0.28061668	-0.76077709	-0.07676971	-0.60283837	-0.54689248	0.10138180	-0.67961711	0.39639375	0.14345684	-0.50381497	-0.21681302	0.19112960	-0.74628591	-0.17254965	-0.03115156	-0.68962656	-0.10949048	-0.39349757
2977	29.76000000	-0.92908317	-0.07722454	0.03254749	-0.72561449	0.09072249	-0.58459951	-0.26321494	-0.76414873	-0.08857062	-0.60981596	-0.53680102	0.09176423	-0.67177159	0.40773777	0.15064154	-0.50290147	-0.22563779	0.20069798	-0.74697217	-0.18067226	0.01163854	-0.69642699	-0.10782410	-0.38559016
2978	29.77000000	-0.92994202	-0.07793544	0.02912120	-0.72541022	0.09297769	-0.57962201	-0.24554142	-0.76676576	-0.09822334	-0.61821190	-0.52691397	0.08086835	-0.66367645	0.41984750	0.15699300	-0.50328700	-0.23020578	0.21017124	-0.74627388	-0.18940321	0.05475666	-0.70289550	-0.10752267	-0.37873414
2979	29.78000000	-0.93060511	-0.07863086	0.02557659	-0.72555106	0.09699249	-0.57621113	-0.22640953	-0.77117526	-0.10494982	-0.62853338	-0.51824799	0.06760759	-0.65782327	0.42949695	0.16069982	-0.50485330	-0.22747066	0.21456755	-0.74302388	-0.19734926	0.09440738	-0.70643460	-0.10974941	-0.37480397
2980	29.79000000	-0.93072403	-0.08009019	0.02206192	-0.72599983	0.10225766	-0.57464059	-0.20594246	-0.77733555	-0.10782965	-0.64053389	-0.50972768	0.05364857	-0.65330113	0.43701254	0.16120430	-0.50584455	-0.21892146	0.21525054	-0.73708482	-0.20572944	0.13022361	-0.70700174	-0.11306462	-0.37329762
2981	29.80000000	-0.92992622	-0.08336827	0.01896326	-0.72528068	0.10775998	-0.57418059	-0.18503751	-0.78367897	-0.10586400	-0.65352225	-0.49904790	0.04227430	-0.64720110	0.44481020	0.15869305	-0.50354853	-0.20871618	0.21731642	-0.72892596	-0.21729578	0.16385826	-0.70605942	-0.11450103	-0.37231549
2982	29.81000000	-0.92816139	-0.08837109	0.01667994	-0.72305873	0.11263478	-0.57421575	-0.16491185	-0.78887986	-0.09923976	-0.66680115	-0.48484219	0.03514075	-0.63854722	0.45402027	0.15435326	-0.49729157	-0.19962242	0.22359717	-0.71883930	-0.23310542	0.19644293	-0.70461758	-0.11278458	-0.37089539
2983	29.82000000	-0.92609906	-0.09243327	0.01563396	-0.72158643	0.11636344	-0.57441499	-0.14747395	-0.79219651	-0.09079170	-0.67967247	-0.46787395	0.03022686	-0.63073409	0.46284423	0.15158317	-0.49097608	-0.19122854	0.23176503	-0.70670369	-0.25038956	0.22788788	-0.70263299	-0.11046317	-0.37020691
2984	29.83000000	-0.92446378	-0.09292928	0.01613344	-0.72308146	0.11852794	-0.57456357	-0.13446093	-0.79311783	-0.08354899	-0.69148978	-0.44924690	0.02520158	-0.62725907	0.46929053	0.15370381	-0.48865751	-0.18280042	0.23898376	-0.69261191	-0.26606338	0.25768441	-0.70002215	-0.11032576	-0.37149236
2985	29.84000000	-0.92354277	-0.09123724	0.01727900	-0.72578861	0.11926570	-0.57525112	-0.12487500	-0.79269804	-0.07884889	-0.70214164	-0.43060291	0.01966980	-0.62657513	0.47346593	0.16015047	-0.48957890	-0.17471562	0.24437545	-0.67944199	-0.27912409	0.28270476	-0.69775729	-0.11231119	-0.37376726
2986	29.85000000	-0.92336488	-0.09108900	0.01746317	-0.72561984	0.11904382	-0.57753625	-0.11611116	-0.79290976	-0.07702834	-0.71183237	-0.41389533	0.01437846	-0.62417082	0.47671226	0.16807001	-0.49015114	-0.16800596	0.24821817	-0.67170455	-0.28979397	0.29828809	-0.69742890	-0.11468042	-0.37473901
2987	29.86000000	-0.92388773	-0.09452588	0.01596812	-0.72077489	0.11875778	-0.58131889	-0.10686904	-0.79467642	-0.07794900	-0.72080608	-0.39981130	0.01006915	-0.61792759	0.47980038	0.17541476	-0.48821967	-0.16337842	0.25095550	-0.67169579	-0.29762686	0.30229770	-0.69966750	-0.11642509	-0.37328830
2988	29.87000000	-0.92491735	-0.09974921	0.01408136	-0.71462550	0.12024938	-0.58390002	-0.09880563	-0.79655392	-0.08044085	-0.72938653	-0.38620370	0.00743857	-0.61115165	0.48219157	0.18200028	-0.48491242	-0.16079630	0.25336684	-0.67672378	-0.30064986	0.29827308	-0.70294397	-0.11821568	-0.37095145
2989	29.88000000	-0.92620266	-0.10456629	0.01327680	-0.71094782	0.12521483	-0.58264322	-0.09386746	-0.79694335	-0.08322302	-0.73785967	-0.37079393	0.00707577	-0.60747150	0.48329138	0.18784698	-0.48170447	-0.16005910	0.25622831	-0.68357231	-0.29710509	0.29034663	-0.70552297	-0.12077806	-0.36945583
2990	29.89000000	-0.92711436	-0.10808003	0.01415115	-0.71046897	0.13252513	-0.57918819	-0.09285931	-0.79595461	-0.08531118	-0.74600961	-0.35390490	0.00852083	-0.60626523	0.48375944	0.19248745	-0.47906928	-0.16031378	0.25981251	-0.69058024	-0.28958727	0.28084253	-0.70655728	-0.12306523	-0.36879156
2991	29.90000000	-0.92680297	-0.11016043	0.01678119	-0.71211640	0.13939001	-0.57768617	-0.09591184	-0.79470250	-0.08589707	-0.75332613	-0.33739037	0.01069657	-0.60441050	0.48499264	0.19516993	-0.47688845	-0.16032409	0.26409509	-0.69700634	-0.28324689	0.27101406	-0.70572593	-0.12299159	-0.36792710
2992	29.91000000	-0.92504959	-0.11125123	0.02072046	-0.71460803	0.14414342	-0.57995726	-0.10302832	-0.79363895	-0.08441358	-0.75966475	-0.32229887	0.01285147	-0.60025079	0.48785394	0.19587453	-0.47482136	-0.15921339	0.26906634	-0.70264978	-0.28072736	0.26121912	-0.70319960	-0.12001523	-0.36649793
2993	29.92000000	-0.92304850	-0.11305431	0.02436999	-0.71624619	0.14767565	-0.58254764	-0.11394728	-0.79170788	-0.08082659	-0.76570551	-0.30783799	0.01497839	-0.59547242	0.49199362	0.19622255	-0.47204861	-0.15691842	0.27475766	-0.70848896	-0.27900436	0.24984869	-0.70023079	-0.11706855	-0.36565731
2994	29.93000000	-0.92206319	-0.11710658	0.02614010	-0.71546571	0.15112708	-0.58178040	-0.12832613	-0.78781073	-0.07526836	-0.77214504	-0.29310837	0.01721166	-0.59201394	0.49691062	0.19787395	-0.46784409	-0.15349543	0.28109532	-0.71552848	-0.27471963	0.23511192	-0.69812071	-0.11723249	-0.36654259
2995	29.94000000	-0.92209758	-0.12148476	0.02614650	-0.71264986	0.15464895	-0.57904193	-0.14535478	-0.78251705	-0.06884404	-0.77869957	-0.27867771	0.02010636	-0.58974825	0.50223523	0.20059560	-0.46311344	-0.14909793	0.28686250	-0.72339640	-0.26898443	0.21608858	-0.69716194	-0.12026875	-0.36800695
